<svg xmlns="http://www.w3.org/2000/svg" xmlns:xlink="http://www.w3.org/1999/xlink" width="500" zoomAndPan="magnify" viewBox="0 0 375 374.999991" height="500" preserveAspectRatio="xMidYMid meet" version="1.0"><defs><g/><clipPath id="f0403086ac"><path d="M 79 82 L 296 82 L 296 300 L 79 300 Z M 79 82 " clip-rule="nonzero"/></clipPath><clipPath id="2718c02228"><path d="M 233.078125 44.78125 L 332.683594 240.664062 L 142.152344 337.546875 L 42.546875 141.667969 Z M 233.078125 44.78125 " clip-rule="nonzero"/></clipPath><clipPath id="525c73ad94"><path d="M 233.078125 44.78125 L 332.683594 240.664062 L 142.152344 337.546875 L 42.546875 141.667969 Z M 233.078125 44.78125 " clip-rule="nonzero"/></clipPath><clipPath id="61aa20b556"><path d="M 233.078125 44.78125 L 332.683594 240.664062 L 142.152344 337.546875 L 42.546875 141.667969 Z M 233.078125 44.78125 " clip-rule="nonzero"/></clipPath><clipPath id="f16720eff6"><path d="M 267.851562 120.949219 C 227.890625 75.246094 159.375 69.597656 115.125 108.347656 C 105.566406 116.71875 97.8125 126.675781 91.890625 137.847656 L 92.171875 137.996094 L 91.890625 137.847656 C 81.742188 156.980469 77.746094 178.714844 80.324219 200.699219 C 82.960938 223.171875 92.332031 244.175781 107.429688 261.441406 C 147.359375 307.097656 215.804688 312.746094 260.007812 274.03125 C 304.257812 235.277344 307.816406 166.648438 267.851562 120.949219 Z M 103.613281 240.929688 C 105.304688 242.863281 106.78125 244.375 107.894531 245.453125 C 115.304688 252.625 125.546875 253.179688 136.390625 253.765625 C 148.914062 254.445312 163.109375 255.214844 175.320312 266.585938 C 185.660156 276.214844 195.8125 284.644531 207.289062 288.484375 C 195.652344 285.011719 185.414062 277.109375 175.339844 268.332031 C 163.191406 257.753906 149.308594 256.535156 137.058594 255.457031 C 126.066406 254.492188 115.683594 253.582031 108.179688 246.195312 C 101.488281 239.605469 95.195312 231.058594 90.386719 221.050781 C 94.726562 229.8125 99.730469 236.492188 103.613281 240.929688 Z M 98.871094 234.070312 C 100.386719 236.109375 101.855469 237.90625 103.195312 239.4375 C 105.078125 241.589844 106.71875 243.242188 107.921875 244.386719 C 115.152344 251.246094 125.203125 251.453125 135.84375 251.667969 C 148.691406 251.929688 163.253906 252.222656 175.597656 264.492188 C 185.730469 274.566406 195.132812 283.300781 206.339844 287.660156 C 195.363281 283.695312 185.578125 275.539062 175.617188 266.261719 C 163.289062 254.777344 149.007812 254.007812 136.410156 253.324219 C 125.652344 252.742188 115.492188 252.195312 108.199219 245.136719 C 106.960938 243.9375 103.199219 240.125 98.871094 234.070312 Z M 175.058594 270.40625 C 163.136719 260.71875 149.679688 259.085938 137.808594 257.648438 C 126.542969 256.285156 115.902344 254.992188 108.164062 247.25 C 102.136719 241.226562 96.449219 233.59375 91.863281 224.757812 C 95.976562 232.46875 100.488281 238.386719 103.996094 242.394531 C 105.511719 244.128906 106.839844 245.507812 107.863281 246.515625 C 115.480469 254.015625 125.945312 254.933594 137.019531 255.910156 C 149.199219 256.980469 163.003906 258.191406 175.042969 268.671875 C 185.390625 277.6875 195.914062 285.789062 207.933594 289.160156 C 195.730469 286.15625 185.113281 278.570312 175.058594 270.402344 Z M 208.328125 289.753906 C 195.636719 287.195312 184.699219 279.972656 174.777344 272.476562 C 163.132812 263.679688 150.703125 261.765625 138.679688 259.910156 C 127.097656 258.128906 116.15625 256.441406 108.140625 248.3125 C 102.128906 242.210938 96.460938 234.519531 91.878906 225.644531 C 96.128906 233.664062 100.792969 239.78125 104.347656 243.84375 C 105.695312 245.390625 106.890625 246.640625 107.835938 247.585938 C 115.691406 255.441406 126.410156 256.742188 137.753906 258.117188 C 150.140625 259.617188 162.949219 261.171875 174.765625 270.769531 C 185.015625 279.097656 195.84375 286.820312 208.332031 289.757812 Z M 104.472656 245.0625 C 105.554688 246.300781 106.667969 247.496094 107.796875 248.648438 C 115.925781 256.890625 126.945312 258.589844 138.609375 260.386719 C 150.570312 262.230469 162.945312 264.136719 174.484375 272.859375 C 183.765625 279.875 194.808594 287.234375 207.355469 290.066406 C 195.421875 287.800781 184.640625 281.660156 174.492188 274.550781 C 163.199219 266.636719 151.257812 264.414062 139.710938 262.261719 C 127.746094 260.035156 116.445312 257.933594 108.121094 249.371094 C 101.53125 242.601562 95.339844 233.941406 90.554688 223.894531 C 94.320312 231.640625 99.054688 238.871094 104.472656 245.066406 Z M 104.769531 246.457031 C 105.746094 247.574219 106.746094 248.664062 107.769531 249.710938 C 116.207031 258.386719 127.582031 260.503906 139.625 262.746094 C 151.121094 264.886719 163.003906 267.101562 174.210938 274.953125 C 183.96875 281.789062 197.074219 289.828125 211.957031 291.339844 C 212.632812 291.410156 213.3125 291.449219 213.988281 291.488281 C 199.3125 290.984375 186.335938 284.464844 174.214844 276.617188 C 163.347656 269.582031 151.960938 267.113281 140.949219 264.722656 C 128.53125 262.023438 116.800781 259.480469 108.105469 250.425781 C 101.671875 243.726562 95.617188 235.226562 90.871094 225.402344 C 94.652344 233.097656 99.371094 240.28125 104.773438 246.457031 Z M 105.984375 253.226562 C 106.523438 253.839844 107.066406 254.441406 107.613281 255.042969 C 118.855469 267.257812 133.753906 271.992188 149.527344 277 C 157.1875 279.429688 165.113281 281.945312 172.84375 285.417969 C 188.453125 292.421875 203.253906 295.097656 217.441406 293.433594 C 203.289062 295.445312 188.472656 293.289062 172.785156 286.980469 C 166.503906 284.453125 160.101562 282.335938 153.90625 280.292969 C 136.605469 274.578125 120.265625 269.179688 108.003906 255.726562 C 105.210938 252.664062 102.554688 249.316406 100.0625 245.746094 C 101.925781 248.34375 103.898438 250.84375 105.980469 253.230469 Z M 99.550781 244.003906 C 101.488281 246.738281 103.550781 249.359375 105.734375 251.855469 C 106.359375 252.574219 107 253.28125 107.644531 253.976562 C 118.050781 265.179688 131.855469 269.285156 146.472656 273.644531 C 155.242188 276.253906 164.3125 278.953125 173.117188 283.324219 C 186.332031 289.886719 198.789062 293.21875 210.792969 293.320312 C 198.714844 293.59375 186.183594 290.789062 173.074219 284.910156 C 165.308594 281.425781 157.371094 278.902344 149.695312 276.46875 C 133.996094 271.484375 119.167969 266.777344 108.027344 254.667969 C 105.03125 251.410156 102.191406 247.84375 99.550781 244.007812 Z M 104.929688 247.714844 C 105.847656 248.761719 106.78125 249.785156 107.738281 250.78125 C 116.539062 259.945312 128.34375 262.507812 140.839844 265.21875 C 151.808594 267.601562 163.148438 270.0625 173.9375 277.046875 C 188.527344 286.492188 200.394531 291.058594 212.402344 291.839844 C 198.007812 291.332031 185.28125 285.457031 173.929688 278.691406 C 163.589844 272.53125 152.839844 269.882812 142.445312 267.320312 C 129.46875 264.125 117.21875 261.105469 108.085938 251.488281 C 103.78125 246.953125 99.652344 241.613281 95.96875 235.625 C 98.660156 239.921875 101.660156 243.976562 104.929688 247.71875 Z M 105.207031 249.101562 C 106.023438 250.035156 106.859375 250.953125 107.707031 251.84375 C 116.941406 261.574219 129.269531 264.609375 142.316406 267.828125 C 152.675781 270.378906 163.386719 273.019531 173.660156 279.140625 C 187.835938 287.582031 200.058594 291.769531 212.03125 292.296875 C 197.351562 292.105469 184.484375 286.675781 173.644531 280.761719 C 163.964844 275.480469 153.960938 272.746094 144.289062 270.097656 C 130.625 266.359375 117.71875 262.828125 108.066406 252.546875 C 104.386719 248.632812 100.9375 244.242188 97.8125 239.449219 C 100.09375 242.839844 102.558594 246.074219 105.207031 249.105469 Z M 105.476562 250.480469 C 106.195312 251.304688 106.929688 252.113281 107.675781 252.910156 C 117.429688 263.300781 130.40625 266.851562 144.148438 270.609375 C 153.792969 273.25 163.761719 275.980469 173.390625 281.230469 C 183.441406 286.710938 195.21875 291.785156 208.558594 292.703125 C 197.324219 292.234375 185.671875 288.945312 173.359375 282.832031 C 164.511719 278.441406 155.421875 275.734375 146.632812 273.113281 C 132.089844 268.785156 118.355469 264.691406 108.050781 253.601562 C 104.832031 250.140625 101.800781 246.308594 99 242.179688 C 101.023438 245.074219 103.179688 247.855469 105.480469 250.480469 Z M 106.234375 254.59375 C 106.679688 255.101562 107.128906 255.605469 107.585938 256.105469 C 119.949219 269.671875 136.355469 275.09375 153.726562 280.832031 C 159.914062 282.871094 166.308594 284.984375 172.574219 287.507812 C 185.964844 292.890625 198.730469 295.265625 210.992188 294.628906 C 198.648438 295.640625 185.796875 293.789062 172.503906 289.042969 C 168.371094 287.570312 164.167969 286.175781 160.105469 284.824219 C 140.4375 278.300781 121.867188 272.136719 107.992188 256.777344 C 104.21875 252.597656 100.835938 248.15625 97.832031 243.519531 C 100.394531 247.40625 103.199219 251.113281 106.238281 254.589844 Z M 106.476562 255.960938 C 106.832031 256.367188 107.195312 256.773438 107.554688 257.171875 C 121.535156 272.648438 140.179688 278.835938 159.917969 285.386719 C 163.980469 286.734375 168.179688 288.128906 172.304688 289.601562 C 185.710938 294.382812 198.664062 296.246094 211.105469 295.214844 C 198.578125 296.621094 185.53125 295.28125 172.214844 291.117188 L 170.21875 290.496094 C 147.707031 283.472656 124.425781 276.207031 107.972656 257.839844 C 107.695312 257.527344 107.421875 257.21875 107.144531 256.902344 C 104.222656 253.5625 101.550781 250.0625 99.101562 246.445312 C 101.386719 249.761719 103.84375 252.953125 106.480469 255.964844 Z M 106.675781 257.28125 C 106.957031 257.601562 107.238281 257.925781 107.523438 258.242188 C 124.085938 276.738281 147.445312 284.023438 170.039062 291.074219 L 172.035156 291.695312 C 185.433594 295.882812 198.554688 297.234375 211.160156 295.820312 C 198.464844 297.613281 185.242188 296.777344 171.921875 293.191406 C 150.144531 287.335938 125.519531 278.679688 107.949219 258.898438 C 107.761719 258.6875 107.585938 258.484375 107.398438 258.273438 C 105.417969 256.007812 103.550781 253.667969 101.785156 251.269531 C 103.339844 253.324219 104.96875 255.332031 106.671875 257.28125 Z M 107.917969 261.015625 C 105.953125 258.769531 104.09375 256.453125 102.335938 254.085938 C 103.90625 256.152344 105.542969 258.175781 107.265625 260.140625 L 107.46875 260.371094 C 122.855469 277.792969 144.398438 289.738281 171.503906 295.878906 C 184.285156 298.773438 196.925781 299.296875 209.078125 297.5625 C 173.09375 303.738281 134.265625 291.140625 107.921875 261.015625 Z M 171.636719 295.265625 C 144.664062 289.160156 123.230469 277.277344 107.933594 259.957031 L 107.742188 259.738281 C 105.828125 257.546875 104.015625 255.292969 102.292969 252.984375 C 103.773438 254.921875 105.3125 256.820312 106.929688 258.664062 C 107.117188 258.878906 107.304688 259.089844 107.496094 259.304688 C 125.171875 279.207031 149.902344 287.90625 171.765625 293.789062 C 187.308594 297.96875 202.71875 298.441406 217.320312 295.367188 C 202.742188 298.785156 187.292969 298.8125 171.636719 295.265625 Z M 258.59375 274.386719 C 258.421875 274.535156 258.246094 274.683594 258.070312 274.828125 C 257.875 274.988281 257.683594 275.148438 257.488281 275.308594 C 257.324219 275.441406 257.164062 275.570312 257 275.699219 C 256.832031 275.832031 256.660156 275.972656 256.496094 276.101562 C 256.355469 276.210938 256.214844 276.316406 256.078125 276.417969 C 255.886719 276.566406 255.695312 276.707031 255.503906 276.851562 C 255.476562 276.875 255.445312 276.898438 255.417969 276.917969 C 255.027344 277.207031 254.636719 277.492188 254.246094 277.773438 C 254.226562 277.785156 254.207031 277.796875 254.191406 277.8125 C 253.597656 278.226562 253.007812 278.632812 252.417969 279.035156 C 252.308594 279.105469 252.199219 279.183594 252.089844 279.257812 C 251.773438 279.464844 251.453125 279.691406 251.132812 279.894531 C 251.046875 279.949219 250.964844 279.996094 250.882812 280.054688 C 250.03125 280.597656 249.1875 281.105469 248.347656 281.605469 C 248.058594 281.773438 247.769531 281.945312 247.480469 282.109375 C 246.863281 282.464844 246.253906 282.800781 245.644531 283.132812 C 245.171875 283.382812 244.707031 283.628906 244.238281 283.871094 C 244.179688 283.898438 244.121094 283.929688 244.0625 283.960938 C 243.925781 284.03125 243.792969 284.09375 243.65625 284.164062 C 211.792969 299.867188 192.84375 281.03125 175.898438 264.1875 C 163.4375 251.796875 148.78125 251.5 135.851562 251.238281 C 125.296875 251.027344 115.328125 250.824219 108.21875 244.074219 C 104.71875 240.753906 81.039062 216.886719 81.417969 180.316406 C 81.503906 175.648438 81.953125 170.855469 82.835938 165.964844 C 82.871094 165.769531 82.90625 165.578125 82.945312 165.382812 C 83.09375 164.570312 83.273438 163.75 83.445312 162.933594 C 83.617188 162.160156 83.785156 161.386719 83.976562 160.609375 C 84.054688 160.285156 84.140625 159.957031 84.222656 159.628906 C 84.519531 158.460938 84.832031 157.292969 85.175781 156.125 C 85.175781 156.125 85.175781 156.125 85.175781 156.117188 C 85.554688 154.832031 85.96875 153.542969 86.40625 152.253906 C 86.457031 152.109375 86.503906 151.960938 86.558594 151.8125 C 86.917969 150.773438 87.300781 149.734375 87.699219 148.695312 C 87.878906 148.238281 88.054688 147.777344 88.238281 147.320312 C 88.421875 146.855469 88.621094 146.386719 88.820312 145.921875 C 88.902344 145.722656 88.984375 145.523438 89.066406 145.324219 C 89.105469 145.238281 89.140625 145.152344 89.175781 145.066406 C 89.441406 144.449219 89.707031 143.832031 89.984375 143.21875 C 90.019531 143.144531 90.050781 143.070312 90.082031 142.992188 C 90.101562 142.949219 90.125 142.90625 90.144531 142.863281 C 90.230469 142.683594 90.316406 142.5 90.402344 142.320312 C 90.613281 141.863281 90.835938 141.40625 91.058594 140.949219 C 91.105469 140.847656 91.15625 140.746094 91.203125 140.648438 C 91.300781 140.453125 91.394531 140.261719 91.492188 140.066406 C 91.566406 139.917969 91.640625 139.769531 91.714844 139.621094 C 91.964844 139.128906 92.203125 138.636719 92.457031 138.148438 C 98.332031 127.070312 106.210938 117.292969 115.6875 108.992188 C 159.585938 70.550781 227.554688 76.164062 267.210938 121.511719 C 306.863281 166.855469 303.484375 235.105469 259.589844 273.546875 C 259.261719 273.832031 258.925781 274.109375 258.597656 274.394531 Z M 258.59375 274.386719 " clip-rule="nonzero"/></clipPath><linearGradient x1="-153.394978" gradientTransform="matrix(0.142685, 0.280602, -0.280162, 0.142462, 233.044749, 44.799869)" y1="339.92001" x2="866.379028" gradientUnits="userSpaceOnUse" y2="339.92001" id="dc4a0dd384"><stop stop-opacity="1" stop-color="rgb(74.099731%, 39.599609%, 7.499695%)" offset="0"/><stop stop-opacity="1" stop-color="rgb(74.099731%, 39.599609%, 7.499695%)" offset="0.0625"/><stop stop-opacity="1" stop-color="rgb(74.099731%, 39.599609%, 7.499695%)" offset="0.078125"/><stop stop-opacity="1" stop-color="rgb(74.099731%, 39.599609%, 7.499695%)" offset="0.0859375"/><stop stop-opacity="1" stop-color="rgb(74.276733%, 39.907837%, 7.751465%)" offset="0.0898438"/><stop stop-opacity="1" stop-color="rgb(74.453735%, 40.216064%, 8.003235%)" offset="0.09375"/><stop stop-opacity="1" stop-color="rgb(75.010681%, 41.188049%, 8.795166%)" offset="0.0976563"/><stop stop-opacity="1" stop-color="rgb(75.569153%, 42.160034%, 9.588623%)" offset="0.101562"/><stop stop-opacity="1" stop-color="rgb(76.127625%, 43.132019%, 10.38208%)" offset="0.105469"/><stop stop-opacity="1" stop-color="rgb(76.686096%, 44.104004%, 11.175537%)" offset="0.109375"/><stop stop-opacity="1" stop-color="rgb(77.244568%, 45.075989%, 11.967468%)" offset="0.113281"/><stop stop-opacity="1" stop-color="rgb(77.80304%, 46.047974%, 12.760925%)" offset="0.117188"/><stop stop-opacity="1" stop-color="rgb(78.359985%, 47.019958%, 13.552856%)" offset="0.121094"/><stop stop-opacity="1" stop-color="rgb(78.918457%, 47.991943%, 14.346313%)" offset="0.125"/><stop stop-opacity="1" stop-color="rgb(79.476929%, 48.963928%, 15.139771%)" offset="0.128906"/><stop stop-opacity="1" stop-color="rgb(80.0354%, 49.935913%, 15.933228%)" offset="0.132812"/><stop stop-opacity="1" stop-color="rgb(80.592346%, 50.906372%, 16.725159%)" offset="0.136719"/><stop stop-opacity="1" stop-color="rgb(81.150818%, 51.878357%, 17.518616%)" offset="0.140625"/><stop stop-opacity="1" stop-color="rgb(81.70929%, 52.850342%, 18.312073%)" offset="0.144531"/><stop stop-opacity="1" stop-color="rgb(82.267761%, 53.822327%, 19.10553%)" offset="0.148438"/><stop stop-opacity="1" stop-color="rgb(82.824707%, 54.794312%, 19.897461%)" offset="0.152344"/><stop stop-opacity="1" stop-color="rgb(83.383179%, 55.766296%, 20.690918%)" offset="0.15625"/><stop stop-opacity="1" stop-color="rgb(83.94165%, 56.738281%, 21.484375%)" offset="0.160156"/><stop stop-opacity="1" stop-color="rgb(84.500122%, 57.710266%, 22.277832%)" offset="0.164062"/><stop stop-opacity="1" stop-color="rgb(85.058594%, 58.682251%, 23.069763%)" offset="0.167969"/><stop stop-opacity="1" stop-color="rgb(85.617065%, 59.654236%, 23.86322%)" offset="0.171875"/><stop stop-opacity="1" stop-color="rgb(86.174011%, 60.626221%, 24.656677%)" offset="0.175781"/><stop stop-opacity="1" stop-color="rgb(86.732483%, 61.598206%, 25.450134%)" offset="0.179688"/><stop stop-opacity="1" stop-color="rgb(87.290955%, 62.57019%, 26.242065%)" offset="0.183594"/><stop stop-opacity="1" stop-color="rgb(87.849426%, 63.542175%, 27.035522%)" offset="0.1875"/><stop stop-opacity="1" stop-color="rgb(88.406372%, 64.51416%, 27.827454%)" offset="0.191406"/><stop stop-opacity="1" stop-color="rgb(88.964844%, 65.486145%, 28.620911%)" offset="0.195313"/><stop stop-opacity="1" stop-color="rgb(89.523315%, 66.456604%, 29.414368%)" offset="0.199219"/><stop stop-opacity="1" stop-color="rgb(90.081787%, 67.428589%, 30.207825%)" offset="0.203125"/><stop stop-opacity="1" stop-color="rgb(90.638733%, 68.400574%, 30.999756%)" offset="0.207031"/><stop stop-opacity="1" stop-color="rgb(91.197205%, 69.372559%, 31.793213%)" offset="0.210938"/><stop stop-opacity="1" stop-color="rgb(91.755676%, 70.344543%, 32.58667%)" offset="0.214844"/><stop stop-opacity="1" stop-color="rgb(92.314148%, 71.316528%, 33.380127%)" offset="0.21875"/><stop stop-opacity="1" stop-color="rgb(92.87262%, 72.288513%, 34.172058%)" offset="0.222656"/><stop stop-opacity="1" stop-color="rgb(93.431091%, 73.260498%, 34.965515%)" offset="0.226562"/><stop stop-opacity="1" stop-color="rgb(93.988037%, 74.232483%, 35.758972%)" offset="0.230469"/><stop stop-opacity="1" stop-color="rgb(94.546509%, 75.204468%, 36.552429%)" offset="0.234375"/><stop stop-opacity="1" stop-color="rgb(95.10498%, 76.176453%, 37.34436%)" offset="0.238281"/><stop stop-opacity="1" stop-color="rgb(95.663452%, 77.148438%, 38.137817%)" offset="0.242188"/><stop stop-opacity="1" stop-color="rgb(96.220398%, 78.120422%, 38.931274%)" offset="0.246094"/><stop stop-opacity="1" stop-color="rgb(96.77887%, 79.092407%, 39.724731%)" offset="0.25"/><stop stop-opacity="1" stop-color="rgb(97.337341%, 80.064392%, 40.516663%)" offset="0.253906"/><stop stop-opacity="1" stop-color="rgb(97.895813%, 81.036377%, 41.31012%)" offset="0.257812"/><stop stop-opacity="1" stop-color="rgb(98.452759%, 82.008362%, 42.102051%)" offset="0.261719"/><stop stop-opacity="1" stop-color="rgb(99.01123%, 82.980347%, 42.895508%)" offset="0.265625"/><stop stop-opacity="1" stop-color="rgb(99.443054%, 83.732605%, 43.508911%)" offset="0.269531"/><stop stop-opacity="1" stop-color="rgb(99.876404%, 84.484863%, 44.12384%)" offset="0.273438"/><stop stop-opacity="1" stop-color="rgb(99.343872%, 83.557129%, 43.367004%)" offset="0.277344"/><stop stop-opacity="1" stop-color="rgb(98.81134%, 82.629395%, 42.610168%)" offset="0.28125"/><stop stop-opacity="1" stop-color="rgb(98.277283%, 81.70166%, 41.853333%)" offset="0.285156"/><stop stop-opacity="1" stop-color="rgb(97.744751%, 80.773926%, 41.096497%)" offset="0.289062"/><stop stop-opacity="1" stop-color="rgb(97.212219%, 79.846191%, 40.339661%)" offset="0.292969"/><stop stop-opacity="1" stop-color="rgb(96.679688%, 78.918457%, 39.582825%)" offset="0.296875"/><stop stop-opacity="1" stop-color="rgb(96.147156%, 77.990723%, 38.825989%)" offset="0.300781"/><stop stop-opacity="1" stop-color="rgb(95.614624%, 77.062988%, 38.069153%)" offset="0.304688"/><stop stop-opacity="1" stop-color="rgb(95.080566%, 76.135254%, 37.312317%)" offset="0.308594"/><stop stop-opacity="1" stop-color="rgb(94.548035%, 75.20752%, 36.555481%)" offset="0.3125"/><stop stop-opacity="1" stop-color="rgb(94.015503%, 74.279785%, 35.797119%)" offset="0.316406"/><stop stop-opacity="1" stop-color="rgb(93.482971%, 73.352051%, 35.040283%)" offset="0.320312"/><stop stop-opacity="1" stop-color="rgb(92.950439%, 72.424316%, 34.283447%)" offset="0.324219"/><stop stop-opacity="1" stop-color="rgb(92.417908%, 71.496582%, 33.526611%)" offset="0.328125"/><stop stop-opacity="1" stop-color="rgb(91.88385%, 70.568848%, 32.769775%)" offset="0.332031"/><stop stop-opacity="1" stop-color="rgb(91.351318%, 69.641113%, 32.012939%)" offset="0.335937"/><stop stop-opacity="1" stop-color="rgb(90.818787%, 68.713379%, 31.256104%)" offset="0.339844"/><stop stop-opacity="1" stop-color="rgb(90.286255%, 67.785645%, 30.499268%)" offset="0.34375"/><stop stop-opacity="1" stop-color="rgb(89.753723%, 66.85791%, 29.742432%)" offset="0.347656"/><stop stop-opacity="1" stop-color="rgb(89.221191%, 65.930176%, 28.985596%)" offset="0.351562"/><stop stop-opacity="1" stop-color="rgb(88.68866%, 65.002441%, 28.227234%)" offset="0.355469"/><stop stop-opacity="1" stop-color="rgb(88.156128%, 64.074707%, 27.470398%)" offset="0.359375"/><stop stop-opacity="1" stop-color="rgb(87.62207%, 63.146973%, 26.713562%)" offset="0.363281"/><stop stop-opacity="1" stop-color="rgb(87.089539%, 62.219238%, 25.956726%)" offset="0.367188"/><stop stop-opacity="1" stop-color="rgb(86.557007%, 61.291504%, 25.19989%)" offset="0.371094"/><stop stop-opacity="1" stop-color="rgb(86.024475%, 60.36377%, 24.443054%)" offset="0.375"/><stop stop-opacity="1" stop-color="rgb(85.491943%, 59.436035%, 23.686218%)" offset="0.378906"/><stop stop-opacity="1" stop-color="rgb(84.959412%, 58.508301%, 22.929382%)" offset="0.382812"/><stop stop-opacity="1" stop-color="rgb(84.425354%, 57.580566%, 22.172546%)" offset="0.386719"/><stop stop-opacity="1" stop-color="rgb(83.892822%, 56.654358%, 21.41571%)" offset="0.390625"/><stop stop-opacity="1" stop-color="rgb(83.360291%, 55.726624%, 20.657349%)" offset="0.394531"/><stop stop-opacity="1" stop-color="rgb(82.827759%, 54.798889%, 19.900513%)" offset="0.398438"/><stop stop-opacity="1" stop-color="rgb(82.295227%, 53.871155%, 19.143677%)" offset="0.402344"/><stop stop-opacity="1" stop-color="rgb(81.762695%, 52.94342%, 18.386841%)" offset="0.40625"/><stop stop-opacity="1" stop-color="rgb(81.228638%, 52.015686%, 17.630005%)" offset="0.410156"/><stop stop-opacity="1" stop-color="rgb(80.696106%, 51.087952%, 16.873169%)" offset="0.414063"/><stop stop-opacity="1" stop-color="rgb(80.163574%, 50.160217%, 16.116333%)" offset="0.417969"/><stop stop-opacity="1" stop-color="rgb(79.631042%, 49.232483%, 15.359497%)" offset="0.421875"/><stop stop-opacity="1" stop-color="rgb(79.098511%, 48.304749%, 14.602661%)" offset="0.425781"/><stop stop-opacity="1" stop-color="rgb(78.565979%, 47.377014%, 13.845825%)" offset="0.429688"/><stop stop-opacity="1" stop-color="rgb(78.031921%, 46.44928%, 13.087463%)" offset="0.433594"/><stop stop-opacity="1" stop-color="rgb(77.49939%, 45.521545%, 12.330627%)" offset="0.4375"/><stop stop-opacity="1" stop-color="rgb(76.966858%, 44.593811%, 11.573792%)" offset="0.441406"/><stop stop-opacity="1" stop-color="rgb(76.434326%, 43.666077%, 10.816956%)" offset="0.445313"/><stop stop-opacity="1" stop-color="rgb(75.901794%, 42.738342%, 10.06012%)" offset="0.449219"/><stop stop-opacity="1" stop-color="rgb(75.369263%, 41.810608%, 9.303284%)" offset="0.453125"/><stop stop-opacity="1" stop-color="rgb(74.835205%, 40.882874%, 8.546448%)" offset="0.457031"/><stop stop-opacity="1" stop-color="rgb(74.302673%, 39.955139%, 7.789612%)" offset="0.460938"/><stop stop-opacity="1" stop-color="rgb(74.674988%, 40.602112%, 8.317566%)" offset="0.464844"/><stop stop-opacity="1" stop-color="rgb(75.047302%, 41.249084%, 8.84552%)" offset="0.46875"/><stop stop-opacity="1" stop-color="rgb(75.63324%, 42.269897%, 9.677124%)" offset="0.472656"/><stop stop-opacity="1" stop-color="rgb(76.219177%, 43.29071%, 10.510254%)" offset="0.476562"/><stop stop-opacity="1" stop-color="rgb(76.805115%, 44.309998%, 11.343384%)" offset="0.480469"/><stop stop-opacity="1" stop-color="rgb(77.391052%, 45.330811%, 12.176514%)" offset="0.484375"/><stop stop-opacity="1" stop-color="rgb(77.97699%, 46.351624%, 13.008118%)" offset="0.488281"/><stop stop-opacity="1" stop-color="rgb(78.562927%, 47.372437%, 13.841248%)" offset="0.492188"/><stop stop-opacity="1" stop-color="rgb(79.148865%, 48.391724%, 14.674377%)" offset="0.496094"/><stop stop-opacity="1" stop-color="rgb(79.734802%, 49.412537%, 15.507507%)" offset="0.5"/><stop stop-opacity="1" stop-color="rgb(80.32074%, 50.43335%, 16.339111%)" offset="0.503906"/><stop stop-opacity="1" stop-color="rgb(80.906677%, 51.454163%, 17.172241%)" offset="0.507813"/><stop stop-opacity="1" stop-color="rgb(81.492615%, 52.474976%, 18.005371%)" offset="0.511719"/><stop stop-opacity="1" stop-color="rgb(82.080078%, 53.495789%, 18.838501%)" offset="0.515625"/><stop stop-opacity="1" stop-color="rgb(82.666016%, 54.515076%, 19.670105%)" offset="0.519531"/><stop stop-opacity="1" stop-color="rgb(83.251953%, 55.535889%, 20.503235%)" offset="0.523438"/><stop stop-opacity="1" stop-color="rgb(83.837891%, 56.556702%, 21.334839%)" offset="0.527344"/><stop stop-opacity="1" stop-color="rgb(84.423828%, 57.577515%, 22.167969%)" offset="0.53125"/><stop stop-opacity="1" stop-color="rgb(85.009766%, 58.596802%, 23.001099%)" offset="0.535156"/><stop stop-opacity="1" stop-color="rgb(85.595703%, 59.617615%, 23.834229%)" offset="0.539062"/><stop stop-opacity="1" stop-color="rgb(86.181641%, 60.638428%, 24.665833%)" offset="0.542969"/><stop stop-opacity="1" stop-color="rgb(86.767578%, 61.659241%, 25.498962%)" offset="0.546875"/><stop stop-opacity="1" stop-color="rgb(87.353516%, 62.678528%, 26.332092%)" offset="0.550781"/><stop stop-opacity="1" stop-color="rgb(87.939453%, 63.699341%, 27.165222%)" offset="0.554688"/><stop stop-opacity="1" stop-color="rgb(88.525391%, 64.720154%, 27.996826%)" offset="0.558594"/><stop stop-opacity="1" stop-color="rgb(89.111328%, 65.740967%, 28.829956%)" offset="0.5625"/><stop stop-opacity="1" stop-color="rgb(89.697266%, 66.76178%, 29.66156%)" offset="0.566406"/><stop stop-opacity="1" stop-color="rgb(90.284729%, 67.782593%, 30.49469%)" offset="0.570312"/><stop stop-opacity="1" stop-color="rgb(90.870667%, 68.80188%, 31.32782%)" offset="0.574219"/><stop stop-opacity="1" stop-color="rgb(91.456604%, 69.822693%, 32.16095%)" offset="0.578125"/><stop stop-opacity="1" stop-color="rgb(92.042542%, 70.843506%, 32.992554%)" offset="0.582031"/><stop stop-opacity="1" stop-color="rgb(92.628479%, 71.864319%, 33.825684%)" offset="0.585938"/><stop stop-opacity="1" stop-color="rgb(93.214417%, 72.883606%, 34.658813%)" offset="0.589844"/><stop stop-opacity="1" stop-color="rgb(93.800354%, 73.904419%, 35.491943%)" offset="0.59375"/><stop stop-opacity="1" stop-color="rgb(94.386292%, 74.925232%, 36.323547%)" offset="0.597656"/><stop stop-opacity="1" stop-color="rgb(94.972229%, 75.946045%, 37.156677%)" offset="0.601562"/><stop stop-opacity="1" stop-color="rgb(95.558167%, 76.966858%, 37.989807%)" offset="0.605469"/><stop stop-opacity="1" stop-color="rgb(96.144104%, 77.987671%, 38.822937%)" offset="0.609375"/><stop stop-opacity="1" stop-color="rgb(96.730042%, 79.006958%, 39.654541%)" offset="0.613281"/><stop stop-opacity="1" stop-color="rgb(97.315979%, 80.027771%, 40.487671%)" offset="0.617188"/><stop stop-opacity="1" stop-color="rgb(97.901917%, 81.048584%, 41.319275%)" offset="0.621094"/><stop stop-opacity="1" stop-color="rgb(98.48938%, 82.069397%, 42.152405%)" offset="0.625"/><stop stop-opacity="1" stop-color="rgb(99.075317%, 83.088684%, 42.985535%)" offset="0.628906"/><stop stop-opacity="1" stop-color="rgb(99.661255%, 84.109497%, 43.818665%)" offset="0.632812"/><stop stop-opacity="1" stop-color="rgb(99.339294%, 83.5495%, 43.362427%)" offset="0.636719"/><stop stop-opacity="1" stop-color="rgb(99.01886%, 82.991028%, 42.906189%)" offset="0.640625"/><stop stop-opacity="1" stop-color="rgb(98.329163%, 81.790161%, 41.926575%)" offset="0.644531"/><stop stop-opacity="1" stop-color="rgb(97.639465%, 80.59082%, 40.94696%)" offset="0.648438"/><stop stop-opacity="1" stop-color="rgb(96.949768%, 79.389954%, 39.967346%)" offset="0.652344"/><stop stop-opacity="1" stop-color="rgb(96.260071%, 78.189087%, 38.987732%)" offset="0.65625"/><stop stop-opacity="1" stop-color="rgb(95.570374%, 76.98822%, 38.008118%)" offset="0.660156"/><stop stop-opacity="1" stop-color="rgb(94.882202%, 75.787354%, 37.028503%)" offset="0.664063"/><stop stop-opacity="1" stop-color="rgb(94.192505%, 74.586487%, 36.048889%)" offset="0.667969"/><stop stop-opacity="1" stop-color="rgb(93.502808%, 73.387146%, 35.069275%)" offset="0.671875"/><stop stop-opacity="1" stop-color="rgb(92.81311%, 72.186279%, 34.089661%)" offset="0.675781"/><stop stop-opacity="1" stop-color="rgb(92.123413%, 70.985413%, 33.110046%)" offset="0.679688"/><stop stop-opacity="1" stop-color="rgb(91.433716%, 69.784546%, 32.130432%)" offset="0.683594"/><stop stop-opacity="1" stop-color="rgb(90.745544%, 68.585205%, 31.150818%)" offset="0.6875"/><stop stop-opacity="1" stop-color="rgb(90.055847%, 67.384338%, 30.171204%)" offset="0.691406"/><stop stop-opacity="1" stop-color="rgb(89.36615%, 66.183472%, 29.191589%)" offset="0.695313"/><stop stop-opacity="1" stop-color="rgb(88.676453%, 64.982605%, 28.211975%)" offset="0.699219"/><stop stop-opacity="1" stop-color="rgb(87.986755%, 63.781738%, 27.232361%)" offset="0.703125"/><stop stop-opacity="1" stop-color="rgb(87.297058%, 62.580872%, 26.252747%)" offset="0.707031"/><stop stop-opacity="1" stop-color="rgb(86.607361%, 61.381531%, 25.273132%)" offset="0.710938"/><stop stop-opacity="1" stop-color="rgb(85.917664%, 60.180664%, 24.291992%)" offset="0.714844"/><stop stop-opacity="1" stop-color="rgb(85.229492%, 58.979797%, 23.312378%)" offset="0.71875"/><stop stop-opacity="1" stop-color="rgb(84.539795%, 57.778931%, 22.332764%)" offset="0.722656"/><stop stop-opacity="1" stop-color="rgb(83.850098%, 56.578064%, 21.353149%)" offset="0.726562"/><stop stop-opacity="1" stop-color="rgb(83.1604%, 55.377197%, 20.373535%)" offset="0.730469"/><stop stop-opacity="1" stop-color="rgb(82.470703%, 54.177856%, 19.393921%)" offset="0.734375"/><stop stop-opacity="1" stop-color="rgb(81.781006%, 52.97699%, 18.414307%)" offset="0.738281"/><stop stop-opacity="1" stop-color="rgb(81.092834%, 51.776123%, 17.434692%)" offset="0.742188"/><stop stop-opacity="1" stop-color="rgb(80.403137%, 50.575256%, 16.455078%)" offset="0.746094"/><stop stop-opacity="1" stop-color="rgb(79.71344%, 49.375916%, 15.475464%)" offset="0.75"/><stop stop-opacity="1" stop-color="rgb(79.023743%, 48.175049%, 14.49585%)" offset="0.753906"/><stop stop-opacity="1" stop-color="rgb(78.334045%, 46.974182%, 13.516235%)" offset="0.757813"/><stop stop-opacity="1" stop-color="rgb(77.644348%, 45.773315%, 12.536621%)" offset="0.761719"/><stop stop-opacity="1" stop-color="rgb(76.956177%, 44.572449%, 11.557007%)" offset="0.765625"/><stop stop-opacity="1" stop-color="rgb(76.266479%, 43.371582%, 10.577393%)" offset="0.769531"/><stop stop-opacity="1" stop-color="rgb(75.576782%, 42.172241%, 9.597778%)" offset="0.773438"/><stop stop-opacity="1" stop-color="rgb(74.887085%, 40.971375%, 8.618164%)" offset="0.777344"/><stop stop-opacity="1" stop-color="rgb(74.197388%, 39.770508%, 7.63855%)" offset="0.78125"/><stop stop-opacity="1" stop-color="rgb(74.691772%, 40.632629%, 8.34198%)" offset="0.785156"/><stop stop-opacity="1" stop-color="rgb(75.187683%, 41.494751%, 9.04541%)" offset="0.789063"/><stop stop-opacity="1" stop-color="rgb(75.773621%, 42.514038%, 9.87854%)" offset="0.792969"/><stop stop-opacity="1" stop-color="rgb(76.359558%, 43.534851%, 10.71167%)" offset="0.796875"/><stop stop-opacity="1" stop-color="rgb(76.945496%, 44.555664%, 11.543274%)" offset="0.800781"/><stop stop-opacity="1" stop-color="rgb(77.531433%, 45.576477%, 12.376404%)" offset="0.804688"/><stop stop-opacity="1" stop-color="rgb(78.117371%, 46.59729%, 13.208008%)" offset="0.808594"/><stop stop-opacity="1" stop-color="rgb(78.703308%, 47.618103%, 14.041138%)" offset="0.8125"/><stop stop-opacity="1" stop-color="rgb(79.289246%, 48.63739%, 14.874268%)" offset="0.816406"/><stop stop-opacity="1" stop-color="rgb(79.876709%, 49.658203%, 15.707397%)" offset="0.820313"/><stop stop-opacity="1" stop-color="rgb(80.462646%, 50.679016%, 16.539001%)" offset="0.824219"/><stop stop-opacity="1" stop-color="rgb(81.048584%, 51.699829%, 17.372131%)" offset="0.828125"/><stop stop-opacity="1" stop-color="rgb(81.634521%, 52.719116%, 18.205261%)" offset="0.832031"/><stop stop-opacity="1" stop-color="rgb(82.220459%, 53.739929%, 19.038391%)" offset="0.835938"/><stop stop-opacity="1" stop-color="rgb(82.806396%, 54.760742%, 19.869995%)" offset="0.839844"/><stop stop-opacity="1" stop-color="rgb(83.392334%, 55.781555%, 20.703125%)" offset="0.84375"/><stop stop-opacity="1" stop-color="rgb(83.978271%, 56.802368%, 21.536255%)" offset="0.847656"/><stop stop-opacity="1" stop-color="rgb(84.564209%, 57.823181%, 22.369385%)" offset="0.851563"/><stop stop-opacity="1" stop-color="rgb(85.150146%, 58.842468%, 23.200989%)" offset="0.855469"/><stop stop-opacity="1" stop-color="rgb(85.736084%, 59.863281%, 24.034119%)" offset="0.859375"/><stop stop-opacity="1" stop-color="rgb(86.322021%, 60.884094%, 24.865723%)" offset="0.863281"/><stop stop-opacity="1" stop-color="rgb(86.907959%, 61.904907%, 25.698853%)" offset="0.867188"/><stop stop-opacity="1" stop-color="rgb(87.493896%, 62.924194%, 26.531982%)" offset="0.871094"/><stop stop-opacity="1" stop-color="rgb(88.08136%, 63.945007%, 27.365112%)" offset="0.875"/><stop stop-opacity="1" stop-color="rgb(88.667297%, 64.96582%, 28.196716%)" offset="0.878906"/><stop stop-opacity="1" stop-color="rgb(89.253235%, 65.986633%, 29.029846%)" offset="0.882812"/><stop stop-opacity="1" stop-color="rgb(89.839172%, 67.00592%, 29.862976%)" offset="0.886719"/><stop stop-opacity="1" stop-color="rgb(90.42511%, 68.026733%, 30.696106%)" offset="0.890625"/><stop stop-opacity="1" stop-color="rgb(91.011047%, 69.047546%, 31.52771%)" offset="0.894531"/><stop stop-opacity="1" stop-color="rgb(91.596985%, 70.068359%, 32.36084%)" offset="0.898438"/><stop stop-opacity="1" stop-color="rgb(92.182922%, 71.089172%, 33.192444%)" offset="0.902344"/><stop stop-opacity="1" stop-color="rgb(92.76886%, 72.109985%, 34.025574%)" offset="0.90625"/><stop stop-opacity="1" stop-color="rgb(93.354797%, 73.129272%, 34.858704%)" offset="0.910156"/><stop stop-opacity="1" stop-color="rgb(93.940735%, 74.150085%, 35.691833%)" offset="0.914062"/><stop stop-opacity="1" stop-color="rgb(94.526672%, 75.170898%, 36.523438%)" offset="0.917969"/><stop stop-opacity="1" stop-color="rgb(95.11261%, 76.191711%, 37.356567%)" offset="0.921875"/><stop stop-opacity="1" stop-color="rgb(95.698547%, 77.210999%, 38.189697%)" offset="0.925781"/><stop stop-opacity="1" stop-color="rgb(96.286011%, 78.231812%, 39.022827%)" offset="0.929688"/><stop stop-opacity="1" stop-color="rgb(96.871948%, 79.252625%, 39.854431%)" offset="0.933594"/><stop stop-opacity="1" stop-color="rgb(97.457886%, 80.273438%, 40.687561%)" offset="0.9375"/><stop stop-opacity="1" stop-color="rgb(98.043823%, 81.292725%, 41.520691%)" offset="0.941406"/><stop stop-opacity="1" stop-color="rgb(98.629761%, 82.313538%, 42.353821%)" offset="0.945312"/><stop stop-opacity="1" stop-color="rgb(99.215698%, 83.334351%, 43.185425%)" offset="0.949219"/><stop stop-opacity="1" stop-color="rgb(99.801636%, 84.355164%, 44.018555%)" offset="0.953125"/><stop stop-opacity="1" stop-color="rgb(99.900818%, 84.526062%, 44.158936%)" offset="0.96875"/><stop stop-opacity="1" stop-color="rgb(100%, 84.698486%, 44.299316%)" offset="1"/></linearGradient></defs><rect x="-37.5" width="450" fill="#ffffff" y="-37.499999" height="449.999989" fill-opacity="1"/><rect x="-37.5" width="450" fill="#ffffff" y="-37.499999" height="449.999989" fill-opacity="1"/><rect x="-37.5" width="450" fill="#000000" y="-37.499999" height="449.999989" fill-opacity="1"/><g clip-path="url(#f0403086ac)"><g clip-path="url(#2718c02228)"><g clip-path="url(#525c73ad94)"><g clip-path="url(#61aa20b556)"><g clip-path="url(#f16720eff6)"><path fill="url(#dc4a0dd384)" d="M 260.550781 -23.359375 L -20.492188 119.550781 L 125.011719 405.703125 L 406.058594 262.792969 Z M 260.550781 -23.359375 " fill-rule="nonzero"/></g></g></g></g></g><g fill="#f8d26b" fill-opacity="1"><g transform="translate(147.531576, 112.819634)"><g><path d="M 3.988281 -5.421875 L 3.328125 -7.050781 L 0.527344 -5.914062 L -0.128906 -7.53125 L 2.792969 -8.714844 L 2.132812 -10.34375 L -2.582031 -8.429688 L 0.71875 -0.292969 L 2.511719 -1.019531 L 1.1875 -4.285156 Z M 3.988281 -5.421875 "/></g></g></g><g fill="#f8d26b" fill-opacity="1"><g transform="translate(162.679423, 107.526673)"><g><path d="M 4.789062 -4.378906 L 2.609375 -3.945312 L 3.089844 -7.226562 Z M 8.664062 -1.726562 L 3.449219 -9.644531 L 1.839844 -9.324219 L 0.0625 -0.0117188 L 2.101562 -0.417969 L 2.378906 -2.277344 L 5.65625 -2.933594 L 6.625 -1.320312 Z M 8.664062 -1.726562 "/></g></g></g><g fill="#f8d26b" fill-opacity="1"><g transform="translate(180.902637, 104.90973)"><g><path d="M 2.695312 -3.152344 L 2.707031 -3.152344 L 4.816406 -0.0234375 L 7.273438 -0.0390625 L 4.734375 -3.253906 C 5.84375 -3.53125 6.730469 -4.515625 6.722656 -6.003906 C 6.714844 -7.667969 5.441406 -8.8125 4.023438 -8.804688 L 2.667969 -8.796875 L 2.1875 -8.792969 L 0.730469 -8.785156 L 0.773438 -0.00390625 L 2.710938 -0.015625 Z M 3.707031 -7.277344 C 4.277344 -7.28125 4.871094 -6.792969 4.875 -5.992188 C 4.882812 -5.152344 4.289062 -4.683594 3.722656 -4.683594 L 2.6875 -4.675781 L 2.675781 -7.273438 Z M 3.707031 -7.277344 "/></g></g></g><g fill="#f8d26b" fill-opacity="1"><g transform="translate(197.533456, 105.659669)"><g><path d="M 7.117188 -7.609375 L 6.476562 -4.167969 L 3.632812 -4.699219 L 4.273438 -8.136719 L 2.367188 -8.492188 L 0.761719 0.140625 L 2.667969 0.496094 L 3.3125 -2.96875 L 6.15625 -2.441406 L 5.511719 1.027344 L 7.542969 1.402344 L 9.148438 -7.230469 Z M 7.117188 -7.609375 "/></g></g></g><g fill="#f8d26b" fill-opacity="1"><g transform="translate(214.975421, 109.841312)"><g><path d="M 6.40625 -1.042969 L 4.34375 -1.871094 L 6.542969 -4.355469 Z M 8.195312 3.296875 L 8.167969 -6.179688 L 6.644531 -6.792969 L 0.0585938 0.0234375 L 1.988281 0.800781 L 3.238281 -0.605469 L 6.339844 0.644531 L 6.265625 2.519531 Z M 8.195312 3.296875 "/></g></g></g><g fill="#f8d26b" fill-opacity="1"><g transform="translate(231.64871, 117.588861)"><g><path d="M 6.414062 4.210938 L 11.234375 -3.128906 L 9.613281 -4.195312 L 6.609375 0.382812 L 7.089844 -5.851562 L 5.46875 -6.917969 L 0.648438 0.425781 L 2.265625 1.488281 L 5.273438 -3.089844 L 4.792969 3.148438 Z M 6.414062 4.210938 "/></g></g></g><g fill="#f8d26b" fill-opacity="1"><g transform="translate(246.144878, 128.340968)"><g/></g></g><g fill="#f8d26b" fill-opacity="1"><g transform="translate(255.135369, 137.540318)"><g><path d="M 4.765625 -0.238281 L 3.339844 4.355469 L 4.929688 6.425781 L 6.28125 0.976562 L 11.820312 0.976562 L 10.308594 -0.992188 L 5.503906 -0.804688 L 8.621094 -3.195312 L 7.441406 -4.730469 L 0.472656 0.613281 L 1.652344 2.152344 Z M 4.765625 -0.238281 "/></g></g></g><g fill="#f8d26b" fill-opacity="1"><g transform="translate(265.046233, 151.937944)"><g><path d="M 10.359375 1.117188 L 7.222656 2.671875 L 5.9375 0.0820312 L 9.074219 -1.476562 L 8.210938 -3.210938 L 0.34375 0.695312 L 1.207031 2.429688 L 4.363281 0.863281 L 5.652344 3.453125 L 2.492188 5.019531 L 3.410156 6.871094 L 11.277344 2.96875 Z M 10.359375 1.117188 "/></g></g></g><g fill="#f8d26b" fill-opacity="1"><g transform="translate(272.18644, 168.391533)"><g><path d="M 4.683594 4.492188 L 4.105469 2.347656 L 7.414062 2.609375 Z M 2.289062 8.53125 L 9.847656 2.8125 L 9.421875 1.230469 L 0.015625 0.0625 L 0.554688 2.070312 L 2.429688 2.222656 L 3.296875 5.453125 L 1.75 6.523438 Z M 2.289062 8.53125 "/></g></g></g><g fill="#f8d26b" fill-opacity="1"><g transform="translate(276.012537, 186.374813)"><g><path d="M 0.488281 7.65625 L 9.253906 7.097656 L 9.128906 5.164062 L 3.664062 5.511719 L 8.9375 2.148438 L 8.8125 0.214844 L 0.0507812 0.773438 L 0.171875 2.707031 L 5.636719 2.359375 L 0.363281 5.722656 Z M 0.488281 7.65625 "/></g></g></g><g fill="#efc75e" fill-opacity="1"><g transform="translate(159.905187, 198.852217)"><g><path d="M 11.574219 -10.261719 L 11.574219 -21.179688 C 14.339844 -25.039062 18.195312 -23.070312 21.761719 -21.90625 C 28.167969 -19.722656 32.535156 -21.324219 35.007812 -28.53125 L 34.425781 -28.820312 C 31.660156 -24.601562 27.65625 -26.636719 24.089844 -27.875 C 18.269531 -29.839844 14.121094 -28.75 11.574219 -23.21875 L 11.574219 -48.472656 L 24.820312 -48.472656 C 30.714844 -48.472656 37.628906 -44.398438 39.886719 -38.792969 L 40.539062 -38.792969 L 37.484375 -49.785156 L 0 -49.785156 L 0 -49.128906 C 3.128906 -49.273438 4.65625 -47.164062 4.65625 -39.449219 L 4.65625 -10.261719 C 4.65625 -2.546875 3.128906 -0.507812 0 -0.65625 L 0 0 L 16.230469 0 L 16.230469 -0.65625 C 13.101562 -0.507812 11.574219 -2.546875 11.574219 -10.261719 Z M 11.574219 -10.261719 "/></g></g></g><g fill="#efc75e" fill-opacity="1"><g transform="translate(175.527355, 231.338963)"><g><path d="M 45.34375 -2.984375 L 44.835938 -3.421875 C 43.378906 -2.183594 41.703125 -3.128906 40.6875 -4.292969 C 38.066406 -7.132812 35.082031 -18.414062 33.699219 -22.488281 C 32.386719 -26.347656 30.058594 -29.695312 25.039062 -29.695312 C 23.507812 -29.695312 22.125 -29.332031 20.816406 -28.820312 L 34.425781 -43.378906 C 35.589844 -44.542969 36.753906 -45.707031 37.917969 -46.871094 C 39.300781 -48.253906 40.03125 -49.199219 42.285156 -49.128906 L 42.285156 -49.785156 L 30.132812 -49.785156 L 30.132812 -49.128906 C 32.097656 -49.199219 33.117188 -49.199219 33.917969 -47.671875 C 33.988281 -47.601562 34.0625 -47.382812 34.136719 -47.164062 C 34.71875 -45.851562 34.0625 -44.980469 33.1875 -44.035156 L 17.175781 -26.929688 C 15.140625 -24.820312 13.390625 -23 11.574219 -20.597656 L 11.574219 -39.449219 C 11.574219 -47.164062 13.101562 -49.273438 16.230469 -49.128906 L 16.230469 -49.785156 L 0 -49.785156 L 0 -49.128906 C 3.128906 -49.273438 4.65625 -47.164062 4.65625 -39.449219 L 4.65625 -10.261719 C 4.65625 -2.546875 3.128906 -0.507812 0 -0.65625 L 0 0 L 16.230469 0 L 16.230469 -0.65625 C 13.101562 -0.507812 11.574219 -2.546875 11.574219 -10.261719 L 11.574219 -18.269531 C 12.589844 -19.722656 13.902344 -21.398438 15.355469 -22.855469 C 20.378906 -27.730469 24.890625 -27.875 27.222656 -21.324219 C 29.039062 -16.375 30.421875 -9.316406 33.042969 -4.511719 C 34.425781 -1.890625 36.535156 0 40.101562 0 C 42.214844 0 44.324219 -0.875 45.34375 -2.984375 Z M 45.34375 -2.984375 "/></g></g></g><path stroke-linecap="butt" transform="matrix(0.258143, 0.698191, -0.703458, 0.26009, 188.552541, 170.192202)" fill="none" stroke-linejoin="miter" d="M -0.000971976 1.501435 L 29.227286 1.498864 " stroke="#000000" stroke-width="3" stroke-opacity="1" stroke-miterlimit="4"/></svg>