<svg xmlns="http://www.w3.org/2000/svg" version="1.1" xmlns:xlink="http://www.w3.org/1999/xlink" xmlns:svgjs="http://svgjs.dev/svgjs" width="2000" height="1247" viewBox="0 0 2000 1247"><g transform="matrix(1,0,0,1,-1.2121212121212466,0.504858299595071)"><svg viewBox="0 0 396 247" data-background-color="#ffffff" preserveAspectRatio="xMidYMid meet" height="1247" width="2000" xmlns="http://www.w3.org/2000/svg" xmlns:xlink="http://www.w3.org/1999/xlink"><g id="tight-bounds" transform="matrix(1,0,0,1,0.2400000000000091,-0.09999999999999432)"><svg viewBox="0 0 395.52 247.2" height="247.2" width="395.52"><g><svg></svg></g><g><svg viewBox="0 0 395.52 247.2" height="247.2" width="395.52"><g transform="matrix(1,0,0,1,75.54432,57.18780973888498)"><svg viewBox="0 0 244.43135999999998 132.82438052223003" height="132.82438052223003" width="244.43135999999998"><g><svg viewBox="0 0 244.43135999999998 132.82438052223003" height="132.82438052223003" width="244.43135999999998"><g><svg viewBox="0 0 244.43135999999998 132.82438052223003" height="132.82438052223003" width="244.43135999999998"><g><svg viewBox="0 0 244.43135999999998 132.82438052223003" height="132.82438052223003" width="244.43135999999998"><g><svg viewBox="0 0 244.43135999999998 132.82438052223003" height="132.82438052223003" width="244.43135999999998" id="textblock"><g><svg viewBox="0 0 244.43135999999998 132.82438052223003" height="132.82438052223003" width="244.43135999999998"><g transform="matrix(1,0,0,1,0,0)"><svg width="244.43135999999998" viewBox="2.25 -38.5 70.8499984741211 38.5" height="132.82438052223003" data-palette-color="#c10000"><path d="M13-18.15L13-7.95Q13-6.05 13.23-4.88 13.45-3.7 14.2-3.08 14.95-2.45 16.32-2.2 17.7-1.95 19.95-1.9L19.95-1.9 19.95 0 2.25 0 2.25-1.9Q4-1.95 5.08-2.2 6.15-2.45 6.75-3.05 7.35-3.65 7.55-4.75 7.75-5.85 7.75-7.6L7.75-7.6 7.75-30.9Q7.75-32.65 7.58-33.73 7.4-34.8 6.88-35.43 6.35-36.05 5.35-36.27 4.35-36.5 2.75-36.6L2.75-36.6 2.75-38.5 31.65-38.5 32.2-28.95 30.45-28.95Q30.15-31.1 29.5-32.48 28.85-33.85 27.68-34.65 26.5-35.45 24.7-35.77 22.9-36.1 20.2-36.1L20.2-36.1 13.85-36.1Q13-36.1 13-35.25L13-35.25 13-20.15Q15.4-20.15 17.13-20.43 18.85-20.7 19.98-21.4 21.1-22.1 21.7-23.3 22.3-24.5 22.45-26.4L22.45-26.4 24.2-26.4 24.2-11.75 22.45-11.75Q22.2-13.65 21.65-14.9 21.1-16.15 20.03-16.85 18.95-17.55 17.25-17.85 15.55-18.15 13-18.15L13-18.15ZM46.5-14.25L46.5-7.95Q46.5-6.05 46.7-4.85 46.9-3.65 47.5-3 48.1-2.35 49.15-2.13 50.2-1.9 51.95-1.9L51.95-1.9 51.95 0 35.75 0 35.75-1.9Q37.5-1.9 38.57-2.13 39.65-2.35 40.25-2.98 40.85-3.6 41.05-4.73 41.25-5.85 41.25-7.6L41.25-7.6 41.25-30.9Q41.25-32.8 41.02-33.93 40.8-35.05 40.22-35.65 39.65-36.25 38.7-36.43 37.75-36.6 36.25-36.6L36.25-36.6 36.25-38.5 51.45-38.5 51.45-36.6Q49.95-36.6 49-36.4 48.05-36.2 47.47-35.55 46.9-34.9 46.7-33.73 46.5-32.55 46.5-30.55L46.5-30.55 46.5-18.2 59-33.25Q60-34.5 60-35.2L60-35.2Q60-36.6 57.15-36.6L57.15-36.6 57.15-38.5 69.2-38.5 69.2-36.65Q68.2-36.65 67.45-36.52 66.7-36.4 65.97-36 65.25-35.6 64.45-34.85 63.65-34.1 62.6-32.9L62.6-32.9 53.2-22.05 67.8-4.5Q69.05-3.05 70.15-2.48 71.25-1.9 73.1-1.9L73.1-1.9 73.1 0 57.75 0 57.75-1.9Q59.7-1.9 60.55-2.23 61.4-2.55 61.4-3.25L61.4-3.25Q61.4-3.65 61-4.4 60.6-5.15 59.7-6.25L59.7-6.25 49.95-18.25 46.5-14.25Z" opacity="1" transform="matrix(1,0,0,1,0,0)" fill="#c10000" class="undefined-text-0" data-fill-palette-color="primary" id="text-0"></path></svg></g></svg></g></svg></g></svg></g></svg></g></svg></g></svg></g><path d="M247.104 51.188L247.104 5.6 11.104 5.6 11.104 241.6 247.104 241.6 247.104 196.012 235.126 196.012 235.126 229.622 23.082 229.622 23.082 17.578 235.126 17.578 235.126 51.188Z" fill="#c10000" stroke="transparent" data-fill-palette-color="primary"></path></svg></g><defs></defs></svg><rect width="395.52" height="247.2" fill="none" stroke="none" visibility="hidden"></rect></g></svg></g></svg>