<svg xmlns="http://www.w3.org/2000/svg" version="1.1" xmlns:xlink="http://www.w3.org/1999/xlink" xmlns:svgjs="http://svgjs.dev/svgjs" width="2000" height="1999" viewBox="0 0 2000 1999"><g transform="matrix(1,0,0,1,-0.4314868804665366,-0.4312711370263287)"><svg viewBox="0 0 343 343" data-background-color="#ffffff" preserveAspectRatio="xMidYMid meet" height="1999" width="2000" xmlns="http://www.w3.org/2000/svg" xmlns:xlink="http://www.w3.org/1999/xlink"><g id="tight-bounds" transform="matrix(1,0,0,1,0.07400000000001228,0.07400000000001228)"><svg viewBox="0 0 342.8515585177538 342.8515585177538" height="342.8515585177538" width="342.8515585177538"><g><svg></svg></g><g><svg viewBox="0 0 342.8515585177538 342.8515585177538" height="342.8515585177538" width="342.8515585177538"><g><path d="M0 171.426c0-94.676 76.75-171.426 171.426-171.426 94.676 0 171.426 76.75 171.426 171.426 0 94.676-76.75 171.426-171.426 171.426-94.676 0-171.426-76.75-171.426-171.426zM171.426 329.313c87.199 0 157.887-70.689 157.887-157.887 0-87.199-70.689-157.887-157.887-157.888-87.199 0-157.887 70.689-157.888 157.888 0 87.199 70.689 157.887 157.888 157.887z" data-fill-palette-color="tertiary" fill="#ff4d4d" stroke="transparent"></path><ellipse rx="164.56874808852183" ry="164.56874808852183" cx="171.4257792588769" cy="171.4257792588769" fill="#ff4d4d" stroke="transparent" stroke-width="0" fill-opacity="1" data-fill-palette-color="tertiary"></ellipse></g><g transform="matrix(1,0,0,1,64.84655864529836,96.36371583823745)"><svg viewBox="0 0 213.15844122715708 150.1241268412789" height="150.1241268412789" width="213.15844122715708"><g><svg viewBox="0 0 213.15844122715708 150.1241268412789" height="150.1241268412789" width="213.15844122715708"><g><svg viewBox="0 0 213.15844122715708 150.1241268412789" height="150.1241268412789" width="213.15844122715708"><g><svg viewBox="0 0 213.15844122715708 150.1241268412789" height="150.1241268412789" width="213.15844122715708"><g><svg viewBox="0 0 213.15844122715708 150.1241268412789" height="150.1241268412789" width="213.15844122715708" id="textblock"><g><svg viewBox="0 0 213.15844122715708 150.1241268412789" height="150.1241268412789" width="213.15844122715708"><g transform="matrix(1,0,0,1,0,0)"><svg width="213.15844122715708" viewBox="3.8499999046325684 -33.70000076293945 47.85000228881836 33.70000076293945" height="150.1241268412789" data-palette-color="#ffffff"><path d="M20.6-18.2L20.6-14.65 7.9-14.65 7.9 0 3.85 0 3.85-33.7 22.35-33.7 22.35-30.15 7.9-30.15 7.9-18.2 20.6-18.2ZM38.15-16.65L51.7 0 46.45 0 33.15-16.65 46-33.7 51-33.7 38.15-16.65ZM32.35-33.7L32.35 0 28.3 0 28.3-33.7 32.35-33.7Z" opacity="1" transform="matrix(1,0,0,1,0,0)" fill="#ffffff" class="undefined-text-0" data-fill-palette-color="quaternary" id="text-0"></path></svg></g></svg></g></svg></g></svg></g><g></g></svg></g></svg></g></svg></g></svg></g><defs></defs></svg><rect width="342.8515585177538" height="342.8515585177538" fill="none" stroke="none" visibility="hidden"></rect></g></svg></g></svg>