<svg xmlns="http://www.w3.org/2000/svg" version="1.1" xmlns:xlink="http://www.w3.org/1999/xlink" xmlns:svgjs="http://svgjs.dev/svgjs" width="128" height="128" viewBox="0 0 128 128"><g transform="matrix(0.8046875,0,0,0.8046875,12.612792253521128,12.612792253521128)"><svg viewBox="0 0 142 142" data-background-color="#ffffff" preserveAspectRatio="xMidYMid meet" height="128" width="128" xmlns="http://www.w3.org/2000/svg" xmlns:xlink="http://www.w3.org/1999/xlink"><g id="tight-bounds" transform="matrix(1,0,0,1,-0.15550000000000352,-0.15550000000000352)"><svg viewBox="0 0 142.31066447748242 142.31066447748242" height="142.31066447748242" width="142.31066447748242"><g><svg></svg></g><g><svg viewBox="0 0 142.31066447748242 142.31066447748242" height="142.31066447748242" width="142.31066447748242"><g><path d="M0 71.155c0-39.298 31.857-71.155 71.155-71.155 39.298 0 71.155 31.857 71.156 71.155 0 39.298-31.857 71.155-71.156 71.156-39.298 0-71.155-31.857-71.155-71.156zM71.155 134.886c35.197 0 63.731-28.533 63.731-63.731 0-35.197-28.533-63.731-63.731-63.73-35.197 0-63.731 28.533-63.73 63.73 0 35.197 28.533 63.731 63.73 63.731z" data-fill-palette-color="tertiary" fill="#c10000" stroke="transparent"></path><ellipse rx="68.30911894919156" ry="68.30911894919156" cx="71.15533223874121" cy="71.15533223874121" fill="#c10000" stroke="transparent" stroke-width="0" fill-opacity="1" data-fill-palette-color="tertiary"></ellipse></g><g transform="matrix(1,0,0,1,41.27942286547922,29.989108276746492)"><svg viewBox="0 0 59.75181874652398 82.33244792398943" height="82.33244792398943" width="59.75181874652398"><g><svg viewBox="0 0 59.75181874652398 82.33244792398943" height="82.33244792398943" width="59.75181874652398"><g><svg viewBox="0 0 59.75181874652398 82.33244792398943" height="82.33244792398943" width="59.75181874652398"><g><svg viewBox="0 0 59.75181874652398 82.33244792398943" height="82.33244792398943" width="59.75181874652398"><g><svg viewBox="0 0 59.75181874652398 82.33244792398943" height="82.33244792398943" width="59.75181874652398"><g transform="matrix(1,0,0,1,0,0)"><svg width="59.75181874652398" viewBox="2 -35.55 25.8 35.55" height="82.33244792398943" data-palette-color="#ffffff"><path d="M15.95-1.45Q15.95-0.7 12.73-0.35 9.5 0 6.6 0 3.7 0 2.85-0.35 2-0.7 2-1.45L2-1.45 2-33.15Q2-34.45 3.3-35 4.6-35.55 8.2-35.55L8.2-35.55 26.75-35.55Q27.8-35.55 27.8-31.78 27.8-28 27.33-26.03 26.85-24.05 26.1-24.05L26.1-24.05 15.95-24.55 15.95-21.15Q22.6-21.45 24.85-21.45L24.85-21.45Q25.6-21.45 25.88-20.65 26.15-19.85 26.15-17.57 26.15-15.3 25.65-13.23 25.15-11.15 24.25-11.15L24.25-11.15 15.95-11.45 15.95-1.45Z" opacity="1" transform="matrix(1,0,0,1,0,0)" fill="#ffffff" class="undefined-text-0" data-fill-palette-color="quaternary" id="text-0"></path></svg></g></svg></g></svg></g></svg></g></svg></g></svg></g></svg></g><defs></defs></svg><rect width="142.31066447748242" height="142.31066447748242" fill="none" stroke="none" visibility="hidden"></rect></g></svg></g></svg>