<svg xmlns="http://www.w3.org/2000/svg" version="1.1" xmlns:xlink="http://www.w3.org/1999/xlink" xmlns:svgjs="http://svgjs.dev/svgjs" width="2000" height="2024" viewBox="0 0 2000 2024"><g transform="matrix(1,0,0,1,1.767868852458946,0.8194331983804659)"><svg viewBox="0 0 244 247" data-background-color="#ffffff" preserveAspectRatio="xMidYMid meet" height="2024" width="2000" xmlns="http://www.w3.org/2000/svg" xmlns:xlink="http://www.w3.org/1999/xlink"><g id="tight-bounds" transform="matrix(1,0,0,1,-0.21567999999999188,-0.09999999999999432)"><svg viewBox="0 0 244.43135999999998 247.2" height="247.2" width="244.43135999999998"><g><svg></svg></g><g><svg viewBox="0 0 244.43135999999998 247.2" height="247.2" width="244.43135999999998"><g transform="matrix(1,0,0,1,0,70.22157428571428)"><svg viewBox="0 0 244.43135999999998 106.75685142857142" height="106.75685142857142" width="244.43135999999998"><g><svg viewBox="0 0 244.43135999999998 106.75685142857142" height="106.75685142857142" width="244.43135999999998"><g><svg viewBox="0 0 244.43135999999998 106.75685142857142" height="106.75685142857142" width="244.43135999999998"><g><svg viewBox="0 0 244.43135999999998 106.75685142857142" height="106.75685142857142" width="244.43135999999998"><g><svg viewBox="0 0 244.43135999999998 106.75685142857142" height="106.75685142857142" width="244.43135999999998"><g><svg viewBox="0 0 244.43135999999998 106.75685142857142" height="106.75685142857142" width="244.43135999999998"><g transform="matrix(1,0,0,1,0,0)"><svg width="244.43135999999998" viewBox="1.6 -27.45 67.2 29.349999999999998" height="106.75685142857142" data-palette-color="#ff5858"><path d="M2.15-6L2.15-6 2.1-4.8Q2.1-2.5 3.23-1.25 4.35 0 6.2 0L6.2 0Q9.3 0 12.65-3.6L12.65-3.6Q14.75-5.85 20-16.7L20-16.7Q22.6-22.1 23-22.9L23-22.9Q24.25-25.3 27.45-26.6L27.45-26.6Q25.35-26.6 21.6-26.35L21.6-26.35Q11.7-25.7 11.7-21.9L11.7-21.9Q11.7-20.15 13.2-19.45L13.2-19.45Q13.5-19.3 13.13-19.1 12.75-18.9 12.33-19.13 11.9-19.35 11-20.4L11-20.4Q9.65-22.05 9.65-23.23 9.65-24.4 10.5-25.35 11.35-26.3 13.8-26.75L13.8-26.75Q17.4-27.4 21.85-27.4L21.85-27.4Q34.55-27.4 36.3-27.3L36.3-27.3Q39.2-27.15 39.2-25.7L39.2-25.7Q39.2-24.85 38.75-23.98 38.3-23.1 38-22.58 37.7-22.05 37.65-21.95L37.65-21.95Q37.4-21.4 36.85-21.35L36.85-21.35Q36.55-21.3 36.65-21.65L36.65-21.65Q37-22.85 37-23.8L37-23.8Q37-25.8 35.4-26.3L35.4-26.3Q34.45-26.7 33.3-26.7L33.3-26.7Q29.05-26.7 27.35-25.4L27.35-25.4Q26.45-24.7 25.73-23.55 25-22.4 24.63-21.78 24.25-21.15 23.73-20.08 23.2-19 22.95-18.45 22.7-17.9 22.15-16.75 21.6-15.6 21.5-15.35L21.5-15.35Q21.3-14.8 21.9-14.8L21.9-14.8 28.95-14.75Q30.55-14.75 31.08-14.45 31.6-14.15 31.23-13.4 30.85-12.65 30.33-11.83 29.8-11 29.68-10.63 29.55-10.25 29-10.2L29-10.2Q28.9-10.25 28.9-10.3L28.9-10.3Q29.55-11.8 29.55-12.6 29.55-13.4 28.85-13.4L28.85-13.4 21.05-13.4Q20.6-13.4 20.38-13 20.15-12.6 19.2-10.68 18.25-8.75 17.82-7.95 17.4-7.15 16.6-5.65L16.6-5.65Q12.4 1.9 7.05 1.9L7.05 1.9Q5.4 1.9 4 1L4 1Q1.6-0.65 1.6-4.5L1.6-4.5 1.6-5.3Q1.6-6.1 2.05-6.1L2.05-6.1Q2.15-6.1 2.15-6ZM60.25-26.03Q62.8-27.1 64.35-27.1 65.9-27.1 66.8-26.75 67.7-26.4 68.25-25.95 68.8-25.5 68.8-25.1 68.8-24.7 68.65-24.7 68.5-24.7 67.87-25.3 67.25-25.9 66-25.9 64.75-25.9 61.55-24.6L61.55-24.6Q56.2-22.3 52.6-20.33 49-18.35 42.45-13.6L42.45-13.6Q43.05-11.95 44.5-9.3 45.95-6.65 47.62-4.63 49.3-2.6 50.52-2.05 51.75-1.5 52.3-1.5 52.85-1.5 53.47-1.6 54.1-1.7 55.32-2.63 56.55-3.55 57.35-4.45 58.15-5.35 59.2-6.75L59.2-6.75Q59.6-7.3 59.75-6.9L59.75-6.9Q59.75-6.6 59.5-6.2L59.5-6.2Q56.9-2.6 55.02-1.05 53.15 0.5 51.25 0.5L51.25 0.5Q48.55 0.5 46-2.85L46-2.85Q43.55-6.05 41.4-10.75L41.4-10.75Q40.55-12.6 40.5-12.7L40.5-12.7Q44.8-16.65 52.2-21.25L52.2-21.25Q57.7-24.95 60.25-26.03ZM30.12 0.55Q29.5 1.1 29.25 1.1 29 1.1 29 0.9L29 0.9Q29 0.85 29.05 0.8L29.05 0.8Q31.2-0.95 32.95-3.95L32.95-3.95Q37-10.8 42.75-21.25L42.75-21.25Q45.15-25.45 48.6-26.4L48.6-26.4Q44.25-26.3 41.7-25.7L41.7-25.7Q37.9-24.85 37.9-21.85L37.9-21.85Q37.9-20.55 38.6-20.05L38.6-20.05Q38.8-19.9 38.55-19.75 38.3-19.6 38-19.78 37.7-19.95 37.05-20.9L37.05-20.9Q36.05-22.4 36.05-23.5 36.05-24.6 36.6-25.43 37.15-26.25 38.85-26.6L38.85-26.6Q41.45-27.2 44.45-27.2L44.45-27.2Q44.55-27.2 47.02-27.2 49.5-27.2 50.2-27.33 50.9-27.45 51-27.45L51-27.45Q51.45-27.45 51.55-26.9L51.55-26.9Q51.55-26.4 51.1-26.4L51.1-26.4Q50.8-26.5 50.5-26.5L50.5-26.5Q48.25-26.5 45.95-22.45L45.95-22.45Q40.35-13 35-2.3L35-2.3Q34.9-2.1 34.62-1.4 34.35-0.7 34.1-0.4 33.85-0.1 33.45-0.18 33.05-0.25 32.6-0.25 32.15-0.25 31.45-0.13 30.75 0 30.12 0.55Z" opacity="1" transform="matrix(1,0,0,1,0,0)" fill="#ff5858" class="undefined-text-0" data-fill-palette-color="primary" id="text-0"></path></svg></g></svg></g></svg></g></svg></g><g></g></svg></g></svg></g></svg></g><path d="M0 64.222L0 1 244.431 1 244.431 64.222 234.804 64.222 234.804 10.627 9.627 10.627 9.627 64.222 0 64.222M0 182.978L0 246.2 244.431 246.2 244.431 182.978 234.804 182.978 234.804 236.573 9.627 236.573 9.627 182.978 0 182.978" fill="#ff5858" stroke="transparent" data-fill-palette-color="primary"></path></svg></g><defs></defs></svg><rect width="244.43135999999998" height="247.2" fill="none" stroke="none" visibility="hidden"></rect></g></svg></g></svg>