<svg xmlns="http://www.w3.org/2000/svg" version="1.1" xmlns:xlink="http://www.w3.org/1999/xlink" xmlns:svgjs="http://svgjs.dev/svgjs" width="2000" height="1247" viewBox="0 0 2000 1247"><g transform="matrix(1,0,0,1,-1.2121212121212466,0.504858299595071)"><svg viewBox="0 0 396 247" data-background-color="#ffffff" preserveAspectRatio="xMidYMid meet" height="1247" width="2000" xmlns="http://www.w3.org/2000/svg" xmlns:xlink="http://www.w3.org/1999/xlink"><g id="tight-bounds" transform="matrix(1,0,0,1,0.2400000000000091,-0.09999999999999432)"><svg viewBox="0 0 395.52 247.2" height="247.2" width="395.52"><g><svg></svg></g><g><svg viewBox="0 0 395.52 247.2" height="247.2" width="395.52"><g transform="matrix(1,0,0,1,75.54432,55.15921920000001)"><svg viewBox="0 0 244.43135999999998 136.88156159999997" height="136.88156159999997" width="244.43135999999998"><g><svg viewBox="0 0 244.43135999999998 136.88156159999997" height="136.88156159999997" width="244.43135999999998"><g><svg viewBox="0 0 244.43135999999998 136.88156159999997" height="136.88156159999997" width="244.43135999999998"><g><svg viewBox="0 0 244.43135999999998 136.88156159999997" height="136.88156159999997" width="244.43135999999998"><g><svg viewBox="0 0 244.43135999999998 136.88156159999997" height="136.88156159999997" width="244.43135999999998"><g><svg viewBox="0 0 244.43135999999998 136.88156159999997" height="136.88156159999997" width="244.43135999999998"><g transform="matrix(1,0,0,1,0,0)"><svg width="244.43135999999998" viewBox="2 -35 62.5 35" height="136.88156159999997" data-palette-color="#ffffff"><path d="M14.7-1.4L14.7 0 2 0 2-1.4 3.6-1.4Q4.7-1.4 5.25-1.78 5.8-2.15 5.9-2.55 6-2.95 6-3.7L6-3.7 6-31.3Q6-32.55 5.5-33.08 5-33.6 3.6-33.6L3.6-33.6 2-33.6 2-35 28.7-35 29.2-27.9 27.8-27.7Q27.7-29.55 26.25-31.23 24.8-32.9 22.2-32.9L22.2-32.9 12.8-32.9Q11.7-32.9 11.15-32.55 10.6-32.2 10.5-31.8 10.4-31.4 10.4-30.7L10.4-30.7 10.4-19.6 20.1-19.6Q20.85-19.6 21.25-19.7L21.25-19.7Q22.3-19.95 22.3-21.6L22.3-21.6 22.3-24 23.8-24 23.8-13.3 22.3-13.3 22.3-15.5Q22.3-16.8 21.75-17.15 21.2-17.5 20.1-17.5L20.1-17.5 10.4-17.5 10.4-3.7Q10.4-2.95 10.5-2.55 10.6-2.15 11.15-1.78 11.7-1.4 12.8-1.4L12.8-1.4 14.7-1.4ZM64.5-1.5L64.5 0 53.1 0 53.1-1.5 54-1.5Q54.8-1.5 54.8-1.9L54.8-1.9Q54.8-2.1 54-3.3L54-3.3 43.8-19.1 40.3-15.6 40.3-3.7Q40.3-2.95 40.4-2.55 40.5-2.15 41.05-1.83 41.6-1.5 42.7-1.5L42.7-1.5 44.6-1.5 44.6 0 31.9 0 31.9-1.5 33.5-1.5Q34.6-1.5 35.15-1.83 35.7-2.15 35.8-2.55 35.9-2.95 35.9-3.7L35.9-3.7 35.9-31.3Q35.9-32.05 35.8-32.45 35.7-32.85 35.15-33.18 34.6-33.5 33.5-33.5L33.5-33.5 31.9-33.5 31.9-35 44.6-35 44.6-33.5 42.7-33.5Q41.6-33.5 41.05-33.18 40.5-32.85 40.4-32.45 40.3-32.05 40.3-31.3L40.3-31.3 40.3-18.3 53.2-30.9Q54.2-31.8 54.2-32.5L54.2-32.5Q54.2-33.5 52.7-33.5L52.7-33.5 51.8-33.5 51.8-35 61.7-35 61.7-33.5 60.9-33.5Q60-33.5 58.3-32.55 56.6-31.6 55.4-30.4L55.4-30.4 46.9-22 58.2-5Q58.8-4.2 59.3-3.4L59.3-3.4Q60.8-1.5 63.3-1.5L63.3-1.5 64.5-1.5Z" opacity="1" transform="matrix(1,0,0,1,0,0)" fill="#ffffff" class="undefined-text-0" data-fill-palette-color="primary" id="text-0"></path></svg></g></svg></g></svg></g></svg></g></svg></g></svg></g></svg></g><path d="M249.551 49.159L249.551 4.303 10.957 4.303 10.957 242.897 249.551 242.897 249.551 198.041 237.207 198.041 237.207 230.553 23.301 230.553 23.301 16.647 237.207 16.647 237.207 49.159Z" fill="#ffffff" stroke="transparent" data-fill-palette-color="primary"></path></svg></g><defs></defs></svg><rect width="395.52" height="247.2" fill="none" stroke="none" visibility="hidden"></rect></g></svg></g></svg>